<mxfile host="app.diagrams.net" modified="2020-04-05T13:02:29.956Z" agent="5.0 (Windows NT 10.0; Win64; x64) AppleWebKit/537.36 (KHTML, like Gecko) Chrome/83.0.4100.3 Safari/537.36" etag="qEKvHkntR2re9L64s_Ef" version="12.9.7" type="github">
  <diagram id="pZ9ysSp05Z0hpNPlnbM9" name="第1頁">
    <mxGraphModel dx="1038" dy="548" grid="1" gridSize="10" guides="1" tooltips="1" connect="1" arrows="1" fold="1" page="1" pageScale="1" pageWidth="827" pageHeight="1169" math="0" shadow="0">
      <root>
        <mxCell id="0" />
        <mxCell id="1" parent="0" />
        <mxCell id="5FIcuP6vEsZofgaKw9Zx-8" value="" style="edgeStyle=orthogonalEdgeStyle;rounded=0;orthogonalLoop=1;jettySize=auto;html=1;" edge="1" parent="1" source="5FIcuP6vEsZofgaKw9Zx-2" target="5FIcuP6vEsZofgaKw9Zx-3">
          <mxGeometry relative="1" as="geometry" />
        </mxCell>
        <mxCell id="5FIcuP6vEsZofgaKw9Zx-2" value="&lt;font style=&quot;font-size: 12px&quot;&gt;Start&lt;/font&gt;" style="rounded=1;whiteSpace=wrap;html=1;" vertex="1" parent="1">
          <mxGeometry width="120" height="60" as="geometry" />
        </mxCell>
        <mxCell id="5FIcuP6vEsZofgaKw9Zx-9" value="" style="edgeStyle=orthogonalEdgeStyle;rounded=0;orthogonalLoop=1;jettySize=auto;html=1;" edge="1" parent="1" source="5FIcuP6vEsZofgaKw9Zx-3" target="5FIcuP6vEsZofgaKw9Zx-4">
          <mxGeometry relative="1" as="geometry" />
        </mxCell>
        <mxCell id="5FIcuP6vEsZofgaKw9Zx-3" value="Update::GetVersion" style="rounded=0;whiteSpace=wrap;html=1;" vertex="1" parent="1">
          <mxGeometry y="120" width="120" height="60" as="geometry" />
        </mxCell>
        <mxCell id="5FIcuP6vEsZofgaKw9Zx-10" value="" style="edgeStyle=orthogonalEdgeStyle;rounded=0;orthogonalLoop=1;jettySize=auto;html=1;" edge="1" parent="1" source="5FIcuP6vEsZofgaKw9Zx-4" target="5FIcuP6vEsZofgaKw9Zx-5">
          <mxGeometry relative="1" as="geometry" />
        </mxCell>
        <mxCell id="5FIcuP6vEsZofgaKw9Zx-17" value="" style="edgeStyle=orthogonalEdgeStyle;rounded=0;orthogonalLoop=1;jettySize=auto;html=1;" edge="1" parent="1" source="5FIcuP6vEsZofgaKw9Zx-4" target="5FIcuP6vEsZofgaKw9Zx-13">
          <mxGeometry relative="1" as="geometry" />
        </mxCell>
        <mxCell id="5FIcuP6vEsZofgaKw9Zx-4" value="1" style="rhombus;whiteSpace=wrap;html=1;" vertex="1" parent="1">
          <mxGeometry y="220" width="120" height="80" as="geometry" />
        </mxCell>
        <mxCell id="5FIcuP6vEsZofgaKw9Zx-11" value="" style="edgeStyle=orthogonalEdgeStyle;rounded=0;orthogonalLoop=1;jettySize=auto;html=1;" edge="1" parent="1" source="5FIcuP6vEsZofgaKw9Zx-5" target="5FIcuP6vEsZofgaKw9Zx-6">
          <mxGeometry relative="1" as="geometry" />
        </mxCell>
        <mxCell id="5FIcuP6vEsZofgaKw9Zx-18" value="" style="edgeStyle=orthogonalEdgeStyle;rounded=0;orthogonalLoop=1;jettySize=auto;html=1;" edge="1" parent="1" source="5FIcuP6vEsZofgaKw9Zx-5" target="5FIcuP6vEsZofgaKw9Zx-14">
          <mxGeometry relative="1" as="geometry" />
        </mxCell>
        <mxCell id="5FIcuP6vEsZofgaKw9Zx-5" value="2" style="rhombus;whiteSpace=wrap;html=1;" vertex="1" parent="1">
          <mxGeometry y="320" width="120" height="80" as="geometry" />
        </mxCell>
        <mxCell id="5FIcuP6vEsZofgaKw9Zx-19" value="" style="edgeStyle=orthogonalEdgeStyle;rounded=0;orthogonalLoop=1;jettySize=auto;html=1;" edge="1" parent="1" source="5FIcuP6vEsZofgaKw9Zx-6" target="5FIcuP6vEsZofgaKw9Zx-15">
          <mxGeometry relative="1" as="geometry" />
        </mxCell>
        <mxCell id="5FIcuP6vEsZofgaKw9Zx-32" value="" style="edgeStyle=orthogonalEdgeStyle;rounded=0;orthogonalLoop=1;jettySize=auto;html=1;" edge="1" parent="1" source="5FIcuP6vEsZofgaKw9Zx-6" target="5FIcuP6vEsZofgaKw9Zx-31">
          <mxGeometry relative="1" as="geometry" />
        </mxCell>
        <mxCell id="5FIcuP6vEsZofgaKw9Zx-6" value="3" style="rhombus;whiteSpace=wrap;html=1;" vertex="1" parent="1">
          <mxGeometry y="420" width="120" height="80" as="geometry" />
        </mxCell>
        <mxCell id="5FIcuP6vEsZofgaKw9Zx-13" value="goto SingleDownload" style="rounded=0;whiteSpace=wrap;html=1;" vertex="1" parent="1">
          <mxGeometry x="160" y="230" width="120" height="60" as="geometry" />
        </mxCell>
        <mxCell id="5FIcuP6vEsZofgaKw9Zx-14" value="goto ReadFromTxt" style="rounded=0;whiteSpace=wrap;html=1;" vertex="1" parent="1">
          <mxGeometry x="160" y="330" width="120" height="60" as="geometry" />
        </mxCell>
        <mxCell id="5FIcuP6vEsZofgaKw9Zx-22" value="" style="edgeStyle=orthogonalEdgeStyle;rounded=0;orthogonalLoop=1;jettySize=auto;html=1;" edge="1" parent="1" source="5FIcuP6vEsZofgaKw9Zx-15" target="5FIcuP6vEsZofgaKw9Zx-21">
          <mxGeometry relative="1" as="geometry" />
        </mxCell>
        <mxCell id="5FIcuP6vEsZofgaKw9Zx-15" value="Update::UpdateYoutube_dl" style="rounded=0;whiteSpace=wrap;html=1;" vertex="1" parent="1">
          <mxGeometry x="160" y="430" width="180" height="60" as="geometry" />
        </mxCell>
        <mxCell id="5FIcuP6vEsZofgaKw9Zx-16" value="goto Start" style="rounded=0;whiteSpace=wrap;html=1;" vertex="1" parent="1">
          <mxGeometry x="160" y="530" width="120" height="60" as="geometry" />
        </mxCell>
        <mxCell id="5FIcuP6vEsZofgaKw9Zx-21" value="goto Start" style="rounded=0;whiteSpace=wrap;html=1;" vertex="1" parent="1">
          <mxGeometry x="390" y="430" width="120" height="60" as="geometry" />
        </mxCell>
        <mxCell id="5FIcuP6vEsZofgaKw9Zx-24" value="F" style="text;html=1;strokeColor=none;fillColor=none;align=center;verticalAlign=middle;whiteSpace=wrap;rounded=0;" vertex="1" parent="1">
          <mxGeometry x="20" y="300" width="40" height="20" as="geometry" />
        </mxCell>
        <mxCell id="5FIcuP6vEsZofgaKw9Zx-25" value="T" style="text;html=1;strokeColor=none;fillColor=none;align=center;verticalAlign=middle;whiteSpace=wrap;rounded=0;" vertex="1" parent="1">
          <mxGeometry x="120" y="240" width="40" height="20" as="geometry" />
        </mxCell>
        <mxCell id="5FIcuP6vEsZofgaKw9Zx-26" value="F" style="text;html=1;strokeColor=none;fillColor=none;align=center;verticalAlign=middle;whiteSpace=wrap;rounded=0;" vertex="1" parent="1">
          <mxGeometry x="20" y="400" width="40" height="20" as="geometry" />
        </mxCell>
        <mxCell id="5FIcuP6vEsZofgaKw9Zx-27" value="T" style="text;html=1;strokeColor=none;fillColor=none;align=center;verticalAlign=middle;whiteSpace=wrap;rounded=0;" vertex="1" parent="1">
          <mxGeometry x="120" y="340" width="40" height="20" as="geometry" />
        </mxCell>
        <mxCell id="5FIcuP6vEsZofgaKw9Zx-28" value="T" style="text;html=1;strokeColor=none;fillColor=none;align=center;verticalAlign=middle;whiteSpace=wrap;rounded=0;" vertex="1" parent="1">
          <mxGeometry x="120" y="440" width="40" height="20" as="geometry" />
        </mxCell>
        <mxCell id="5FIcuP6vEsZofgaKw9Zx-29" value="F" style="text;html=1;strokeColor=none;fillColor=none;align=center;verticalAlign=middle;whiteSpace=wrap;rounded=0;" vertex="1" parent="1">
          <mxGeometry x="20" y="500" width="40" height="20" as="geometry" />
        </mxCell>
        <mxCell id="5FIcuP6vEsZofgaKw9Zx-33" value="" style="edgeStyle=orthogonalEdgeStyle;rounded=0;orthogonalLoop=1;jettySize=auto;html=1;" edge="1" parent="1" source="5FIcuP6vEsZofgaKw9Zx-31" target="5FIcuP6vEsZofgaKw9Zx-16">
          <mxGeometry relative="1" as="geometry" />
        </mxCell>
        <mxCell id="5FIcuP6vEsZofgaKw9Zx-31" value="&lt;span style=&quot;white-space: normal&quot;&gt;default&lt;/span&gt;" style="rounded=0;whiteSpace=wrap;html=1;" vertex="1" parent="1">
          <mxGeometry y="530" width="120" height="60" as="geometry" />
        </mxCell>
      </root>
    </mxGraphModel>
  </diagram>
</mxfile>
